Coordinates
version=1
nRows=18
nColumns=22
inDegrees=yes

Units are S.I. units (second, meters, Newtons, ...)
If the header above contains a line with 'inDegrees', this indicates whether rotational values are in degrees (yes) or radians (no).

endheader
time	pelvis_tilt	pelvis_list	pelvis_rotation	pelvis_tx	pelvis_ty	pelvis_tz	hip_flexion_r	hip_adduction_r	hip_rotation_r	knee_angle_r	ankle_angle_r	subtalar_angle_r	hip_flexion_l	hip_adduction_l	hip_rotation_l	knee_angle_l	ankle_angle_l	subtalar_angle_l	lumbar_extension	lumbar_bending	lumbar_rotation
      3.85000000	     -0.81483720	      8.72242171	    -90.14620663	      0.36420404	      0.97904150	      1.16428525	     25.95574530	      0.28013328	     -1.63694745	    -56.19758939	     15.46402803	      1.71961578	     28.09996692	      1.23666785	     -3.84943013	    -24.03789071	     12.35873034	      0.09020175	     -0.02180544	     -0.72707793	      3.08044194
      3.86000000	     -0.86764035	      8.81966996	    -90.11405542	      0.36491632	      0.97948706	      1.16729280	     26.49056367	      0.34088340	     -1.46450525	    -55.37977049	     16.09582460	      1.71987443	     27.89069921	      1.24310724	     -3.85399641	    -23.81657435	     12.47837620	      0.02940793	     -0.07292472	     -0.73211245	      2.85942749
      3.87000000	     -0.91623773	      8.92026225	    -90.06839071	      0.36563566	      0.97988352	      1.17024637	     26.98621088	      0.37009333	     -1.33622352	    -54.45758684	     16.68122723	      1.66611142	     27.69676845	      1.26154268	     -3.84064882	    -23.60845353	     12.59356708	     -0.04687269	     -0.11778513	     -0.73811519	      2.63676186
      3.88000000	     -0.96629706	      9.02726820	    -89.97661942	      0.36643092	      0.98022464	      1.17315154	     27.44300319	      0.34569425	     -1.31061361	    -53.44519603	     17.18733775	      1.39319820	     27.52420484	      1.30483665	     -3.76625890	    -23.41460051	     12.70059197	     -0.26544785	     -0.15178404	     -0.73384772	      2.36071971
      3.89000000	     -1.00632314	      9.11197552	    -89.88488548	      0.36722197	      0.98057401	      1.17603214	     27.83242009	      0.27866007	     -1.34976434	    -52.35381392	     17.65061163	      0.91062337	     27.33575958	      1.35522956	     -3.71338069	    -23.23162795	     12.80891067	     -0.38511172	     -0.20647358	     -0.73636839	      2.11198000
      3.90000000	     -1.04099519	      9.19759236	    -89.79379911	      0.36800042	      0.98091511	      1.17886750	     28.18119460	      0.18877414	     -1.43114338	    -51.19145273	     18.03127492	      0.21890308	     27.14755011	      1.41502206	     -3.62256418	    -23.04349602	     12.89482928	     -0.50009754	     -0.25536186	     -0.73932668	      1.87816857
      3.91000000	     -1.07089904	      9.28242477	    -89.68954988	      0.36879498	      0.98123303	      1.18166487	     28.49156684	      0.05958471	     -1.60322005	    -49.98014152	     18.39091167	     -0.58230056	     26.97081853	      1.48067132	     -3.54740884	    -22.86968615	     12.97385075	     -0.60035730	     -0.29931778	     -0.74280707	      1.67602713
      3.92000000	     -1.09453683	      9.36485593	    -89.57163103	      0.36958238	      0.98152854	      1.18442055	     28.76443880	     -0.09622046	     -1.84744017	    -48.73358784	     18.72697430	     -1.43568057	     26.80825630	      1.55438342	     -3.46847481	    -22.71942038	     13.05380831	     -0.68686632	     -0.34019916	     -0.74970976	      1.45676349
      3.93000000	     -1.12141903	      9.44579513	    -89.43396055	      0.37036871	      0.98180903	      1.18713284	     29.00160052	     -0.26149733	     -2.15994075	    -47.45885263	     19.02020700	     -2.31488694	     26.65959465	      1.62984017	     -3.37185240	    -22.58938393	     13.13102866	     -0.76081944	     -0.37667309	     -0.75110980	      1.24185387
      3.94000000	     -1.15693797	      9.52624950	    -89.28811012	      0.37110915	      0.98207030	      1.18980933	     29.20696786	     -0.41085579	     -2.51159478	    -46.16866645	     19.28061239	     -3.16126271	     26.52846184	      1.69390565	     -3.26783224	    -22.48610464	     13.21032152	     -0.82125111	     -0.40573605	     -0.74319638	      1.04185127
      3.95000000	     -1.20612551	      9.60595551	    -89.13950807	      0.37177605	      0.98231443	      1.19245653	     29.38187698	     -0.52227229	     -2.87258093	    -44.87287648	     19.50634392	     -3.92682483	     26.41483494	      1.73821959	     -3.15655699	    -22.41162293	     13.29636128	     -0.86933020	     -0.42617311	     -0.72218874	      0.85534058
      3.96000000	     -1.27301240	      9.68485304	    -88.98261831	      0.37237602	      0.98253463	      1.19507097	     29.52902066	     -0.58547119	     -3.22396361	    -43.58511033	     19.71358279	     -4.52751503	     26.32331273	      1.76028573	     -3.04056812	    -22.37293337	     13.40063165	     -0.90362686	     -0.43900349	     -0.68154089	      0.67747951
      3.97000000	     -1.35904866	      9.76223672	    -88.83325338	      0.37286826	      0.98272028	      1.19766619	     29.65402276	     -0.59149555	     -3.55630952	    -42.32144582	     19.92768310	     -4.92182544	     26.25879674	      1.74627645	     -2.95519333	    -22.38567259	     13.53171652	     -0.92720751	     -0.44272937	     -0.62515612	      0.54894783
      3.98000000	     -1.45987838	      9.84458291	    -88.70690828	      0.37321046	      0.98288672	      1.20023995	     29.76006967	     -0.51401678	     -3.78552224	    -41.07696630	     20.10517690	     -5.20665342	     26.20735721	      1.70038338	     -2.87409355	    -22.41071366	     13.66203715	     -0.94294848	     -0.42963419	     -0.55596709	      0.46157842
      3.99000000	     -1.56939212	      9.92750290	    -88.59635864	      0.37341966	      0.98302487	      1.20280785	     29.84793950	     -0.37496290	     -3.93641023	    -39.87172284	     20.27281902	     -5.31806620	     26.16848474	      1.63107065	     -2.79955314	    -22.45949049	     13.80607993	     -0.94907762	     -0.40239156	     -0.48401128	      0.41037394
      4.00000000	     -1.69795209	     10.00522960	    -88.49304967	      0.37353169	      0.98313844	      1.20536059	     29.90965563	     -0.17255054	     -4.01609315	    -38.70837531	     20.41994064	     -5.28737883	     26.14058608	      1.53355232	     -2.71866356	    -22.53720674	     13.97414875	     -0.94723211	     -0.37169431	     -0.38746924	      0.38414799
      4.01000000	     -1.84311810	     10.07426351	    -88.39631308	      0.37353887	      0.98323403	      1.20791523	     29.94346294	      0.08481538	     -4.03144928	    -37.59605580	     20.54575505	     -5.10733103	     26.11524959	      1.40812968	     -2.64384454	    -22.63758212	     14.16817013	     -0.93789362	     -0.33708471	     -0.27584743	      0.38348331
      4.02000000	     -1.99178045	     10.13204522	    -88.31117781	      0.37346681	      0.98331456	      1.21047466	     29.94914243	      0.37586435	     -3.98154655	    -36.54484709	     20.65085436	     -4.77006194	     26.08426656	      1.26926650	     -2.57573841	    -22.75103789	     14.37971577	     -0.92216330	     -0.30320017	     -0.15821945	      0.40913947
